<svg width="44" height="40" viewBox="0 0 44 40" fill="none" xmlns="http://www.w3.org/2000/svg">
<rect width="44" height="40" rx="4" fill="#0064C7"/>
<path d="M25.2325 17.5871C26.0898 16.7536 26.5714 15.6232 26.5714 14.4444C26.5714 13.2657 26.0898 12.1352 25.2325 11.3017C24.3752 10.4683 23.2124 10 22 10C20.7876 10 19.6248 10.4683 18.7675 11.3017C17.9102 12.1352 17.4286 13.2657 17.4286 14.4444C17.4286 15.6232 17.9102 16.7536 18.7675 17.5871C19.6248 18.4206 20.7876 18.8889 22 18.8889C23.2124 18.8889 24.3752 18.4206 25.2325 17.5871Z" stroke="white" stroke-width="2" stroke-linecap="round" stroke-linejoin="round"/>
<path d="M16.3431 24.5003C17.8434 23.0417 19.8783 22.2222 22 22.2222C24.1217 22.2222 26.1566 23.0417 27.6569 24.5003C29.1571 25.9589 30 27.9372 30 30H14C14 27.9372 14.8429 25.9589 16.3431 24.5003Z" stroke="white" stroke-width="2" stroke-linecap="round" stroke-linejoin="round"/>
</svg>
