<svg width="22" height="18" viewBox="0 0 22 18" fill="none" xmlns="http://www.w3.org/2000/svg">
<path d="M17.6667 9V8.98857M21 14.7143V3.28571C21 2.67951 20.7659 2.09812 20.3491 1.66947C19.9324 1.24082 19.3671 1 18.7778 1L3.22222 1C2.63285 1 2.06762 1.24082 1.65087 1.66947C1.23413 2.09813 1 2.67951 1 3.28571L1 14.7143C1 15.3205 1.23413 15.9019 1.65087 16.3305C2.06762 16.7592 2.63285 17 3.22222 17L18.7778 17C19.3671 17 19.9324 16.7592 20.3491 16.3305C20.7659 15.9019 21 15.3205 21 14.7143Z" stroke="#A9B7D5" stroke-width="2" stroke-linecap="round" stroke-linejoin="round"/>
</svg>
