<svg width="20" height="20" viewBox="0 0 20 20" fill="none" xmlns="http://www.w3.org/2000/svg">
<path d="M1 1.00212V6.62645H1.65475M1.65475 6.62645C2.40158 4.77957 3.74014 3.23263 5.46066 2.22807C7.18117 1.22351 9.1864 0.818102 11.1621 1.07539C13.1378 1.33268 14.9723 2.23811 16.378 3.6498C17.7838 5.06149 18.6815 6.89964 18.9302 8.87619M1.65475 6.62645H6.625M19 19V13.3757H18.3464M18.3464 13.3757C17.5985 15.2215 16.2595 16.7672 14.5392 17.7708C12.8188 18.7745 10.8142 19.1794 8.83911 18.9222C6.86402 18.6651 5.02997 17.7603 3.6241 16.3495C2.21823 14.9388 1.3199 13.1017 1.06975 11.1259M18.3464 13.3757H13.375" stroke="#A9B7D5" stroke-width="2" stroke-linecap="round" stroke-linejoin="round"/>
</svg>
