<svg width="24" height="22" viewBox="0 0 24 22" fill="none" xmlns="http://www.w3.org/2000/svg">
<path d="M9.55556 4.75H3.44444C2.79614 4.75 2.17438 5.01339 1.71596 5.48223C1.25754 5.95107 1 6.58696 1 7.25V18.5C1 19.163 1.25754 19.7989 1.71596 20.2678C2.17438 20.7366 2.79614 21 3.44444 21H20.5556C21.2039 21 21.8256 20.7366 22.284 20.2678C22.7425 19.7989 23 19.163 23 18.5V7.25C23 6.58696 22.7425 5.95107 22.284 5.48223C21.8256 5.01339 21.2039 4.75 20.5556 4.75H14.4444M9.55556 4.75V3.5C9.55556 2.83696 9.81309 2.20107 10.2715 1.73223C10.7299 1.26339 11.3517 1 12 1C12.6483 1 13.2701 1.26339 13.7285 1.73223C14.1869 2.20107 14.4444 2.83696 14.4444 3.5V4.75M9.55556 4.75C9.55556 5.41304 9.81309 6.04893 10.2715 6.51777C10.7299 6.98661 11.3517 7.25 12 7.25C12.6483 7.25 13.2701 6.98661 13.7285 6.51777C14.1869 6.04893 14.4444 5.41304 14.4444 4.75M8.33333 14.75C8.98164 14.75 9.60339 14.4866 10.0618 14.0178C10.5202 13.5489 10.7778 12.913 10.7778 12.25C10.7778 11.587 10.5202 10.9511 10.0618 10.4822C9.60339 10.0134 8.98164 9.75 8.33333 9.75C7.68503 9.75 7.06327 10.0134 6.60485 10.4822C6.14643 10.9511 5.88889 11.587 5.88889 12.25C5.88889 12.913 6.14643 13.5489 6.60485 14.0178C7.06327 14.4866 7.68503 14.75 8.33333 14.75ZM8.33333 14.75C9.92956 14.75 11.2874 15.7938 11.7922 17.25M8.33333 14.75C7.5748 14.7498 6.83486 14.9901 6.2154 15.4378C5.59595 15.8855 5.12746 16.5187 4.87444 17.25M15.6667 11H19.3333M15.6667 16H18.1111" stroke="#A9B7D5" stroke-width="2" stroke-linecap="round" stroke-linejoin="round"/>
</svg>
