<svg xmlns="http://www.w3.org/2000/svg" viewBox="0 0 392.46 161.55"><defs><style>.cls-1{fill:#0064c7;}.cls-2{fill:#fff;}.cls-3{fill:#de1f36;}</style></defs><title>brand-logo-main</title><g id="Layer_2" data-name="Layer 2"><g id="Layer_1-2" data-name="Layer 1"><path class="cls-1" d="M87.78,1,87.6,2h-.82L86.6,3h-.82L85.6,4h-.82L84.6,5h-.82L83.6,6h-.82L82.6,7h-.82L81.6,8h-.82L80.6,9h-.82l-.18,1h-.82L67.59,73.65a48.54,48.54,0,0,1-3.06,11.16,18.84,18.84,0,0,1-6.52,1c-8.22,0-12-4.11-12-12a12.88,12.88,0,0,1,.17-2.47H11.8c-.15.33-.26.67-.39,1H10.8c-.15.33-.26.67-.39,1H9.8c-.15.33-.26.67-.39,1H8.8c-.15.33-.26.67-.39,1H7.8c-.15.33-.26.67-.39,1H6.8c-.15.33-.26.67-.39,1H5.8c-.15.33-.26.67-.39,1H4.8c-.15.33-.26.67-.39,1H3.8c-.15.33-.26.67-.39,1H2.8A38,38,0,0,0,0,95.19c0,19.57,17.6,29.11,46.05,29.11,22.58,0,36.86-6.16,45.9-15.56.34-.33.68-.66,1-1s.68-.66,1-1,.68-.66,1-1,.68-.66,1-1,.68-.66,1-1,.68-.66,1-1,.68-.66,1-1,.68-.66,1-1c8.42-8.19,12.58-19,14.63-30.5L126.75,1Z"/><path class="cls-1" d="M235.76,12.69,227.68,71a56.32,56.32,0,0,1-6.58,20l-43.44,1.14,5.61,22.07,1.87,7.39a69.12,69.12,0,0,1-19.06,3.19c-29.61,1.06-43.55-10.64-44.27-30.68a59.48,59.48,0,0,1,.67-9.76l8.19-59.15.87,0,.13-1,.87,0,.13-1,.87,0,.13-1,.87,0,.13-1,.87,0,.13-1,.87,0,.13-1,.87,0,.13-1,.87,0,.13-1,.87,0,.13-1,.87,0,33.68-1.21-8.33,59.45a29.3,29.3,0,0,0-.27,4.8c.27,7.41,4.18,11,11.29,10.79A17.85,17.85,0,0,0,182.1,89q.15-.37.3-.78a30.83,30.83,0,0,0,1.48-6l8.34-59.3.86,0,.14-1,.86,0,.14-1,.86,0,.14-1,.86,0,.14-1,.86,0,.14-1,.86,0,.14-1,.86,0,.14-1,.86,0,.14-1,.86,0,.14-1,.86,0Z"/><path class="cls-1" d="M301.68,15l-44.61-3.19-.74,0-.27,1-.73,0-.27,1-.73,0-.27,1-.73,0-.27,1-.73,0-.27,1-.73-.05-.27,1.05-.73-.05-.27,1.05-.73-.05-.27,1.05-.73-.05-.27,1.05-.73-.05-17.51,70,7.54-.2,35.2-.92L294.47,89a38.84,38.84,0,0,0,18.75-10.61l1-1,1-1,1-1,1-1,1-1,1-1,1-1,1-1c.32-.3.63-.61.93-.92a39.75,39.75,0,0,0,10.91-24.41C334.2,29.2,325.51,16.67,301.68,15ZM287.47,56.28c0,.31-.08.61-.12.9a10.26,10.26,0,0,1-2.49.13L280.09,57l2-7.9c.23.06.47.13.69.21a6.52,6.52,0,0,1,4.68,7Z"/><polygon class="cls-1" points="384.34 4.39 375.5 86.9 339.8 87.84 330.85 88.07 338.6 15.86 339.5 15.8 339.6 14.86 340.5 14.8 340.6 13.86 341.5 13.8 341.6 12.86 342.5 12.8 342.6 11.86 343.5 11.8 343.6 10.86 344.5 10.8 344.6 9.86 345.5 9.8 345.6 8.86 346.5 8.8 346.6 7.86 347.5 7.8 347.6 6.86 348.5 6.8 384.34 4.39"/><path class="cls-2" d="M10,85.19a38,38,0,0,1,2.8-14.8H47.17A12.88,12.88,0,0,0,47,72.86c0,7.89,3.79,12,12,12,13.65,0,16.77-11,18.58-21.21L88.78,0h39L115.58,69.24C111.31,93.08,98,114.3,56.05,114.3,27.6,114.3,10,104.76,10,85.19Z"/><path class="cls-2" d="M202.22,12.93l-.14,1-8.2,58.33c-1.17,8-4.55,14-11.48,16a18.22,18.22,0,0,1-4.49.69c-7.11.26-11-3.38-11.29-10.79a29.3,29.3,0,0,1,.27-4.8l8.33-59.45-34.55,1.24-.13,1-8.06,58.18a59.48,59.48,0,0,0-.67,9.76c.72,20,14.66,31.74,44.27,30.68,2.49-.09,4.88-.28,7.19-.58l-5.61-22.07,43.44-1.14h.44a55.87,55.87,0,0,0,7.14-21l8.08-58.28Z"/><path class="cls-2" d="M302.68,14l-45.35-3.24-.26,1L237.36,90.52l35.2-.92,2.48-10,11,.79c17,1.21,28.57-3.73,36.13-10.94a39.59,39.59,0,0,0,11.91-25.41C335.2,28.2,326.51,15.67,302.68,14Zm-5.21,32.3c-.5,7-5.94,9.66-10,10a8.77,8.77,0,0,1-1.61,0L281.09,56l1.7-6.69,2.75-10.85,4.77.35C294.21,39.05,297.81,41.49,297.47,46.26Z"/><path class="cls-2" d="M348.6,5.86l-.1.94-8.7,81,35.7-.94.89,0,8.95-83.49Z"/><polygon class="cls-3" points="186.57 98.88 392.46 90.46 383.74 152.28 200.06 161.55 186.57 98.88"/><path class="cls-2" d="M235.33,132c0,.49,0,1.3-.05,1.71-.81,7.37-7.36,10.24-13.55,10.65-7.65.51-12-2.65-12.52-9.89-.82-12.3,7-18.63,15.22-19.18,7-.46,11.3,2.46,11.62,7.4a9.35,9.35,0,0,1-.38,3.44l-9.26.61a5.89,5.89,0,0,0,0-.85c-.14-2.14-1.3-3.16-2.68-3.07-3.68.24-4.74,6.89-4.5,10.54.14,2.14.89,3.63,3,3.5,1.73-.12,3.16-1.35,3.7-4.23Z"/><path class="cls-2" d="M255.71,136.62l-8.17.54-1.85,5.16-9.88.66,12.29-28.61,12.5-.83L266.16,141l-9.63.63Zm-5.68-6,4.81-.32-.3-2.13a67.23,67.23,0,0,1-.67-7l-.36,0c-.95,2.87-1.54,4.41-2.26,6.37Z"/><path class="cls-2" d="M294,117.7a8.81,8.81,0,0,1-.37,3.07l-8.33.56a5.88,5.88,0,0,0,0-.82c-.11-1.58-1.36-2-2.61-1.94a2.19,2.19,0,0,0-2.29,2.19c0,.56.43,1.06,2.16,1.28,7.7.95,10.7,3.35,11,7.43.37,5.51-3.45,10.39-13.77,11.08-6,.39-10.9-1.47-11.24-6.57a8.38,8.38,0,0,1,.39-3.32l8.13-.54a2.49,2.49,0,0,0,0,.61c.12,1.78,1.32,2.8,3.59,2.65s3-1.66,2.92-2.47-.82-1.41-3.61-1.79c-5.62-.77-9.28-2-9.58-6.6-.28-4.09,2.43-10.4,12.83-11.09C288.79,111.06,293.71,112.93,294,117.7Z"/><path class="cls-2" d="M299.44,111l9.66-.64-3,28-9.66.65Z"/><path class="cls-2" d="M329.84,121.62l1.31-12.76,9.34-.62-3.05,28-8.46.56-4.35-7.35c-1-1.68-2.07-3.64-3.1-5.72l-.28.06L319.8,137.4l-9.43.63,3.06-28,8.94-.59,3.76,6.42c1.09,1.79,2.22,3.5,3.35,5.79Z"/><path class="cls-2" d="M371.35,117.08c.65,9.75-5.08,17.73-16.08,18.46-8.46.56-12.46-3.4-12.89-9.87-.68-10.36,5.28-18.52,16.12-19.24C366.87,105.88,370.9,110.28,371.35,117.08Zm-18.93,7.31c.16,2.43,1.07,4,3.66,3.82,3.93-.26,5.53-5.53,5.21-10.38-.17-2.47-1.13-4.15-3.6-4C352.71,114.17,352.24,121.8,352.42,124.39Z"/></g></g></svg>